<svg version="1.1" id="Layer_1" xmlns="http://www.w3.org/2000/svg" xmlns:xlink="http://www.w3.org/1999/xlink" x="0px" y="0px"
	 width="100%" viewBox="0 0 496 496" enable-background="new 0 0 496 496" xml:space="preserve">
<path fill="#000000" opacity="1.000000" stroke="none" 
	d="
M228.999969,420.251892 
	C179.000381,420.250092 129.500793,420.249695 80.001221,420.244019 
	C72.745361,420.243195 72.727707,420.231598 72.727417,413.158478 
	C72.722687,298.826141 72.721664,184.493774 72.724739,70.161423 
	C72.724915,63.675503 72.744720,63.653194 79.435402,63.652958 
	C193.767761,63.648876 308.100098,63.649544 422.432465,63.654217 
	C429.323792,63.654499 429.345367,63.674198 429.345612,70.443932 
	C429.350037,184.776291 429.350128,299.108643 429.345123,413.441010 
	C429.344818,420.224884 429.321167,420.251465 422.362823,420.252350 
	C382.863159,420.257385 343.363525,420.252472 303.863861,420.241058 
	C296.687256,420.238983 296.686005,420.217896 296.669464,413.152344 
	C296.666351,411.819092 296.764343,410.479248 296.665009,409.153748 
	C296.422699,405.922363 297.908539,404.685333 301.080933,404.723114 
	C308.746277,404.814484 316.413635,404.723846 324.080200,404.723114 
	C351.913300,404.720459 379.747101,404.625153 407.578827,404.822693 
	C412.296417,404.856171 413.861603,403.618103 413.855225,398.706482 
	C413.719452,294.207550 413.719513,189.708374 413.821899,85.209396 
	C413.826324,80.670876 412.572968,79.237198 407.913422,79.242493 
	C303.247772,79.361343 198.581940,79.354065 93.916290,79.241188 
	C89.523941,79.236458 88.191231,80.548622 88.195213,84.916275 
	C88.290764,189.581924 88.293159,294.247681 88.179512,398.913300 
	C88.174469,403.557922 89.655792,404.842804 94.199860,404.831177 
	C148.365723,404.692688 202.532181,404.682709 256.697998,404.824097 
	C261.474121,404.836548 262.970612,403.461700 262.960968,398.623138 
	C262.822693,329.124023 262.821930,259.624451 262.949768,190.125290 
	C262.958313,185.490097 261.560089,183.864838 256.967499,184.213501 
	C252.493271,184.553177 247.968826,184.409729 243.474670,184.248566 
	C240.203354,184.131256 238.924133,185.525513 239.098267,188.693420 
	C239.216980,190.853333 239.111938,193.025375 239.112091,195.191986 
	C239.116501,258.191406 239.138016,321.190826 239.069489,384.190155 
	C239.066574,386.857544 240.528046,390.704102 237.503571,391.951569 
	C233.710587,393.515991 229.306198,392.574615 225.199921,391.977478 
	C223.795364,391.773193 223.778366,390.274750 223.727173,389.121063 
	C223.645950,387.290802 223.654541,385.455811 223.654449,383.622803 
	C223.650864,319.456696 223.651108,255.290573 223.649429,191.124466 
	C223.649261,184.300293 223.645264,184.290649 216.795609,184.288284 
	C193.795807,184.280319 170.796021,184.288803 147.796219,184.271133 
	C140.764389,184.265732 140.764404,184.236496 140.730377,177.451981 
	C140.687759,168.954895 140.687759,168.938187 149.122208,168.935654 
	C184.788559,168.924942 220.454926,168.930756 256.121277,168.916031 
	C262.812897,168.913269 262.819336,168.882690 262.843719,162.304550 
	C262.859192,158.137970 262.557861,153.944763 262.930969,149.811554 
	C263.378662,144.852097 261.775818,143.197693 256.580994,143.228546 
	C220.749252,143.441406 184.915619,143.334457 149.082596,143.329697 
	C147.749313,143.329514 146.411087,143.247375 145.083725,143.334259 
	C141.858017,143.545349 140.659058,142.055939 140.698608,138.879562 
	C140.853958,126.408943 139.502838,128.589035 152.203247,128.559967 
	C213.868637,128.418777 275.534637,128.528137 337.200378,128.589233 
	C343.856384,128.595825 350.485626,127.731117 357.177429,128.422363 
	C360.202057,128.734787 361.203003,129.773331 361.183716,132.694016 
	C361.100891,145.260864 361.790985,143.268097 350.909393,143.309982 
	C328.576569,143.395950 306.242218,143.445084 283.910858,143.245529 
	C279.453918,143.205719 277.970276,144.631271 278.300049,148.987152 
	C278.626251,153.295975 278.372375,157.648392 278.380737,161.981659 
	C278.393646,168.686829 278.396454,168.712311 284.938324,168.715561 
	C308.104767,168.727051 331.271240,168.709625 354.437683,168.725677 
	C361.014404,168.730240 361.083984,168.835327 361.132751,175.470566 
	C361.137634,176.137207 361.141418,176.803894 361.138458,177.470535 
	C361.108734,184.159256 361.025879,184.276688 354.521057,184.280411 
	C331.687927,184.293488 308.854767,184.281967 286.021637,184.280594 
	C284.688354,184.280518 283.353088,184.335907 282.022217,184.280960 
	C279.535248,184.178284 278.268555,185.240433 278.379456,187.816193 
	C278.436737,189.146820 278.379761,190.482254 278.379700,191.815506 
	C278.376221,265.481506 278.374298,339.147522 278.368683,412.813538 
	C278.368134,420.243866 278.357971,420.256287 270.989655,420.259369 
	C257.159760,420.265167 243.329865,420.255066 228.999969,420.251892 
z"/>
<path fill="#000000" opacity="1.000000" stroke="none" 
	d="
M361.985413,328.145874 
	C358.219177,329.580536 354.851257,331.059265 351.348969,332.074493 
	C345.773682,333.690552 344.844452,332.918518 344.778961,327.207489 
	C344.727386,322.711761 344.773132,318.214966 344.754669,313.718719 
	C344.746490,311.728485 344.874969,309.725494 343.864471,307.865387 
	C343.002533,306.278717 342.784912,304.643372 344.377167,303.356720 
	C345.829956,302.182739 347.480316,302.106964 348.987640,303.214844 
	C350.535126,304.352295 350.538666,305.859344 350.046082,307.674774 
	C348.234741,314.350281 349.330627,321.088440 349.339600,328.436279 
	C363.415466,324.900970 373.170532,317.158325 379.185638,304.754761 
	C388.147430,286.274902 384.381256,261.470123 370.614807,248.069702 
	C362.223114,239.901184 351.855255,235.998077 340.417419,235.452759 
	C329.284149,234.921967 318.107788,235.317917 306.950836,235.240707 
	C304.893280,235.226471 303.060730,235.939880 301.131256,236.415894 
	C298.799957,236.991074 297.086273,235.906174 296.875397,233.484497 
	C296.660553,231.016876 298.340576,229.485519 300.603607,229.949249 
	C313.625275,232.617645 326.806824,230.718658 339.904480,231.478867 
	C369.094391,233.173126 388.586670,253.972885 387.872955,283.124084 
	C387.389465,302.869995 379.884796,318.178986 361.985413,328.145874 
z"/>
<path fill="#000000" opacity="1.000000" stroke="none" 
	d="
M302.405640,282.786804 
	C308.340179,285.114441 314.305359,283.783325 320.203491,283.835785 
	C322.695526,283.858002 322.831573,281.712921 322.839111,279.811005 
	C322.863495,273.648895 322.927307,267.485840 322.848846,261.324799 
	C322.799377,257.440979 324.226410,255.446472 328.438843,255.627899 
	C334.074829,255.870651 339.751434,255.296143 345.261841,257.108795 
	C357.419342,261.108002 363.473877,271.810364 362.147675,287.044128 
	C361.947968,289.338013 361.118652,291.549744 361.706207,293.958374 
	C362.103149,295.585663 361.147491,296.851044 359.457458,297.320953 
	C358.090118,297.701050 356.790527,297.538971 355.787476,296.429718 
	C354.636383,295.156738 354.638397,293.771881 355.444641,292.290222 
	C360.170837,283.604919 358.923676,275.051453 353.473083,267.497498 
	C347.800690,259.636108 338.913147,258.967499 329.996613,259.385651 
	C327.440887,259.505524 327.237549,261.320831 327.236359,263.272430 
	C327.232452,269.601166 327.082428,275.934143 327.269806,282.257141 
	C327.393402,286.427612 325.958893,288.447723 321.537109,288.309662 
	C315.380829,288.117401 309.213440,288.202545 303.052124,288.276855 
	C299.512177,288.319550 297.973267,286.747711 297.834625,283.185699 
	C297.538208,275.569824 298.745056,267.903839 296.858826,260.321747 
	C296.363770,258.331818 297.747009,256.769653 300.036835,256.786407 
	C302.506042,256.804443 304.128754,258.399261 303.420959,260.620605 
	C301.121674,267.836517 302.600372,275.155273 302.405640,282.786804 
z"/>
<path fill="#000000" opacity="1.000000" stroke="none" 
	d="
M311.019104,305.823914 
	C315.176300,305.826813 318.840668,305.869812 322.503662,305.818604 
	C325.871704,305.771545 327.308807,307.379852 327.257111,310.718323 
	C327.159119,317.045380 327.156494,323.375000 327.208649,329.702789 
	C327.234619,332.855286 325.773346,334.263885 322.670868,334.249817 
	C315.843262,334.218811 309.015350,334.239594 302.187561,334.253876 
	C299.267303,334.259979 297.919067,332.700317 297.905487,329.909851 
	C297.873901,323.415527 297.903229,316.920959 297.889008,310.426514 
	C297.882172,307.302704 299.505341,305.873962 302.532227,305.856842 
	C305.196655,305.841797 307.861176,305.833984 311.019104,305.823914 
M322.843170,314.791779 
	C322.925781,312.245758 322.599426,310.062042 319.244293,310.099701 
	C314.749725,310.150208 310.254211,310.105042 305.759216,310.127991 
	C303.936920,310.137299 302.337433,310.625122 302.315002,312.828918 
	C302.258057,318.429504 302.296082,324.031097 302.296082,330.039093 
	C304.722961,330.039093 306.521515,330.038330 308.320068,330.039185 
	C322.888092,330.046295 322.888092,330.046417 322.843170,314.791779 
z"/>
<path fill="#000000" opacity="1.000000" stroke="none" 
	d="
M304.508484,363.798492 
	C307.138489,368.316956 306.655243,372.876709 306.006134,377.268494 
	C305.243134,382.431213 301.423279,385.106110 295.595306,385.329254 
	C285.684937,385.708710 285.683441,385.708679 285.689484,376.011292 
	C285.692169,371.691559 285.704987,367.371857 285.707611,363.052124 
	C285.708679,361.301361 285.871826,359.383026 288.082123,359.378448 
	C293.793732,359.366547 299.851105,358.275635 304.508484,363.798492 
M293.769379,365.475525 
	C290.550415,368.642914 292.704651,372.626007 292.186340,376.202271 
	C292.000336,377.485565 292.176697,378.991882 293.779358,379.452179 
	C295.264923,379.878845 296.799988,379.680420 297.989594,378.624298 
	C300.928223,376.015411 300.000702,372.559021 299.736633,369.349854 
	C299.486084,366.305145 297.433838,365.183350 293.769379,365.475525 
z"/>
<path fill="#000000" opacity="1.000000" stroke="none" 
	d="
M338.665771,385.308167 
	C332.386261,384.282257 329.397156,378.860260 330.973358,372.058716 
	C332.298828,366.339386 336.380035,363.753815 342.088440,365.632172 
	C344.366211,366.381714 347.252167,364.415253 348.638367,366.585419 
	C350.270081,369.139954 349.226227,372.417267 349.319275,375.376190 
	C349.423553,378.693604 349.375275,382.019348 349.283203,385.338409 
	C349.189453,388.718781 347.436890,391.247314 344.209381,391.902557 
	C340.363739,392.683289 336.294922,393.397705 332.630249,391.029968 
	C331.691040,390.423187 331.781525,389.297119 332.172394,388.314362 
	C332.794250,386.750519 334.107452,386.690460 335.494263,386.888367 
	C338.156799,387.268341 340.980591,388.659546 343.359528,385.606171 
	C341.834290,384.260376 340.372009,385.634003 338.665771,385.308167 
M339.799805,379.842102 
	C343.284058,378.814178 344.846344,375.715820 343.469849,372.442749 
	C342.592896,370.357574 340.629883,369.644379 338.993256,370.701080 
	C336.072632,372.586853 335.612091,375.449982 337.537354,378.462708 
	C337.867462,378.979279 338.550354,379.270386 339.799805,379.842102 
z"/>
<path fill="#000000" opacity="1.000000" stroke="none" 
	d="
M339.106354,347.381897 
	C337.361633,349.531403 335.537781,349.783630 333.660889,348.336365 
	C332.075531,347.113953 332.201172,345.428284 333.011078,343.819824 
	C334.040070,341.776367 333.848419,339.601318 333.851715,337.454010 
	C333.870117,325.470032 333.887665,313.485779 333.821838,301.502045 
	C333.804688,298.381012 334.308929,295.197693 332.729156,292.197632 
	C331.942017,290.702850 332.489594,289.246979 333.942230,288.303375 
	C335.155548,287.515198 336.504852,287.461243 337.729034,288.194824 
	C339.140717,289.040802 339.671997,290.354462 339.391571,292.034180 
	C336.687836,308.227661 338.870056,324.541077 338.189545,340.783875 
	C338.096863,342.995514 340.111511,344.756866 339.106354,347.381897 
z"/>
<path fill="#000000" opacity="1.000000" stroke="none" 
	d="
M322.078400,385.467163 
	C315.047180,386.799835 311.085907,384.779602 309.530334,379.383057 
	C307.701233,373.037415 309.878784,367.390106 314.870697,365.533478 
	C319.717285,363.730865 324.865417,365.422913 326.974243,369.511597 
	C330.039490,375.454498 328.221588,381.830780 322.078400,385.467163 
M316.973938,380.368866 
	C321.649994,381.539612 322.443115,378.361816 322.405273,375.049713 
	C322.376678,372.543823 321.383606,369.768372 318.022430,370.442932 
	C314.101318,371.229828 315.178406,374.630310 315.256195,377.277649 
	C315.282471,378.172180 315.966827,379.047363 316.973938,380.368866 
z"/>
<path fill="#000000" opacity="1.000000" stroke="none" 
	d="
M179.601837,365.635101 
	C177.259689,370.630127 178.801651,375.664001 178.311996,380.570282 
	C178.105667,382.637573 178.737320,385.183228 175.349243,385.246338 
	C171.777542,385.312836 172.006226,382.714905 171.951050,380.385925 
	C171.883972,377.554840 171.828537,374.716766 171.950027,371.889526 
	C172.110382,368.157104 172.149460,364.777924 166.873596,364.882874 
	C164.997879,364.920227 164.635559,363.225311 164.739243,361.569061 
	C164.850204,359.796539 166.081802,359.403198 167.504028,359.368134 
	C172.163803,359.253296 176.825211,359.121979 181.485352,359.142181 
	C183.442093,359.150635 185.806458,359.070801 185.961395,361.912689 
	C186.109360,364.626709 184.124771,365.115112 181.946030,365.217316 
	C181.282990,365.248413 180.624237,365.370850 179.601837,365.635101 
z"/>
<path fill="#000000" opacity="1.000000" stroke="none" 
	d="
M318.998260,243.661743 
	C326.197815,243.066208 333.086884,245.077255 339.637360,242.052094 
	C340.886169,241.475372 342.201294,242.476761 343.042603,243.610825 
	C343.926361,244.802094 344.007324,246.078140 343.099731,247.299591 
	C342.240204,248.456360 341.002411,249.065811 339.614716,248.783127 
	C323.822052,245.566071 307.859222,248.209457 292.002167,247.339584 
	C289.906647,247.224640 288.165710,248.245331 286.262970,248.768738 
	C284.870911,249.151657 283.626160,248.512680 282.873627,247.256714 
	C282.129761,246.015121 282.168701,244.673141 282.980988,243.485138 
	C283.790283,242.301575 285.072174,241.586456 286.435760,242.039719 
	C296.984802,245.546005 307.832672,242.768387 318.998260,243.661743 
z"/>
<path fill="#000000" opacity="1.000000" stroke="none" 
	d="
M216.231750,370.540100 
	C216.277206,374.647247 216.292465,378.310181 216.277298,381.972931 
	C216.269577,383.836304 215.734116,385.243683 213.463730,385.210266 
	C211.199066,385.176880 210.731018,383.743958 210.717926,381.893860 
	C210.700256,379.396332 210.700180,376.898560 210.663376,374.401306 
	C210.635406,372.502930 210.555801,370.427277 207.948395,370.549347 
	C205.944626,370.643127 204.512146,371.903656 204.355225,374.037994 
	C204.196823,376.192352 204.317627,378.365967 204.206024,380.525421 
	C204.098495,382.605988 204.586761,385.224945 201.226089,385.167389 
	C198.101364,385.113892 198.770416,382.645691 198.656830,380.767120 
	C198.576584,379.439850 198.642365,378.103851 198.641174,376.771729 
	C198.631134,365.398346 198.629044,365.345612 209.853226,364.927643 
	C213.320267,364.798553 215.436844,366.704895 216.231750,370.540100 
z"/>
<path fill="#000000" opacity="1.000000" stroke="none" 
	d="
M188.646866,379.869263 
	C188.651016,376.068298 188.635437,372.750580 188.671127,369.433472 
	C188.690491,367.632172 188.399078,365.451172 191.091293,365.397186 
	C193.848236,365.341888 194.139221,367.440063 194.158691,369.552917 
	C194.192337,373.201843 194.259796,376.852600 194.178253,380.499573 
	C194.132431,382.547791 194.668457,385.226562 191.295609,385.161957 
	C187.827271,385.095520 188.937164,382.290314 188.646866,379.869263 
z"/>
<path fill="#000000" opacity="1.000000" stroke="none" 
	d="
M191.896683,358.076935 
	C194.492950,359.487915 194.957733,361.251709 192.866913,362.890808 
	C191.440460,364.009064 189.503433,363.915009 188.708298,361.935425 
	C187.710114,359.450317 189.008499,358.187653 191.896683,358.076935 
z"/>
</svg>